<?xml version="1.0" encoding="UTF-8"?><svg id="Camada_2" xmlns="http://www.w3.org/2000/svg" viewBox="0 0 310.83 79.89"><defs><style>.cls-1{fill:#a20404;stroke-width:0px;}</style></defs><g id="Camada_1-2"><path class="cls-1" d="m293.25,79.78h17.58L273.07.13l-15.31-.04,7.29,16.36-25.65,63.33h3l7.46-19.38h34.77l8.63,19.38Zm-42.33-22.16l15.05-39.08,17.4,39.08h-32.46Z"/><path class="cls-1" d="m49.09,3.17V.39H0v19.06c0,16.06,11.64,16.06,15.89,16.06h21.99c1.95,0,3.01,1.36,3.01,2.64,0,1.68-1.31,2.94-3.05,2.94H15.89s-15.89,0-15.89,17.96v20.77h15.89v-26.37c0-9.53,2.28-9.57,7.32-9.57h14.61c3.27,0,5.83-2.51,5.83-5.72,0-2.66-2.16-5.42-5.79-5.42h-16.58c-2.29,0-5.4-.49-5.4-10.5V2.68l33.2.48Z"/><path class="cls-1" d="m220.82,59.01c-4.23-8.94-12.45-9.94-18.08-9.94h-5.54s0,0,0,0c-1.72-.02-3.01-1.28-3.01-2.94,0-1.28,1.05-2.64,3.01-2.64h6.28v-.02c13.48-.22,21.86-7.95,21.86-21.29,0-12.44-9.62-22.05-23.49-22.05h-6.3s0,0,0,0h-27.79v79.64h15.89V2.7l9.12.17-.05.05c14.2,0,16.75,13.61,16.75,19.28,0,6.84-.63,18.53-11.98,18.53h-.28c-3.62,0-5.79,2.76-5.79,5.42,0,3.21,2.56,5.72,5.83,5.72v-.02c6.23.02,6.15,3.42,7.86,7.16l8.61,20.77h17.58l-10.47-20.77Z"/><path class="cls-1" d="m155.8,59.34s0-.01,0-.02h0c-.02-15.43-12.12-20.32-25.99-20.32h-1.04s-6.85,0-6.85,0c-1.74,0-3.05-1.27-3.05-2.94,0-1.28,1.05-2.64,3.01-2.64h4.18v-.02c7.8-.11,21.81-1.45,21.81-17.07C147.86,7.19,137.98,0,125.66,0h-9.58S92.26,0,92.26,0v79.64h35.22c18.57,0,28.31-7.87,28.32-20.29h0s0-.01,0-.02Zm-36.04,17.53h-11.61V2.56l7.94.22c12.68,0,15.89,8.46,15.89,15.11,0,9.26-5.09,12.74-10.42,12.74l.02.02c-3.44.15-5.49,2.82-5.49,5.41,0,3.21,2.56,5.72,5.83,5.72h2.11c15.99,0,15.89,12.65,15.89,19.19,0,5.61-4.15,15.9-20.16,15.9Z"/><rect class="cls-1" x="60.99" y=".17" width="16.12" height="79.72"/></g></svg>