<svg width="20" height="20" viewBox="0 0 20 20" fill="none" xmlns="http://www.w3.org/2000/svg">
<mask id="mask0_9_3675" style="mask-type:alpha" maskUnits="userSpaceOnUse" x="0" y="0" width="20" height="20">
<rect width="20" height="20" fill="#D9D9D9"/>
</mask>
<g mask="url(#mask0_9_3675)">
<path d="M4.16667 18.3347C3.70833 18.3347 3.31597 18.1715 2.98958 17.8451C2.66319 17.5187 2.5 17.1264 2.5 16.668V6.66804C2.5 6.2097 2.66319 5.81734 2.98958 5.49095C3.31597 5.16456 3.70833 5.00137 4.16667 5.00137H5.83333C5.83333 3.84859 6.23958 2.86595 7.05208 2.05345C7.86458 1.24095 8.84722 0.834703 10 0.834703C11.1528 0.834703 12.1354 1.24095 12.9479 2.05345C13.7604 2.86595 14.1667 3.84859 14.1667 5.00137H15.8333C16.2917 5.00137 16.684 5.16456 17.0104 5.49095C17.3368 5.81734 17.5 6.2097 17.5 6.66804V16.668C17.5 17.1264 17.3368 17.5187 17.0104 17.8451C16.684 18.1715 16.2917 18.3347 15.8333 18.3347H4.16667ZM4.16667 16.668H15.8333V6.66804H4.16667V16.668ZM10 11.668C11.1528 11.668 12.1354 11.2618 12.9479 10.4493C13.7604 9.63679 14.1667 8.65415 14.1667 7.50137H12.5C12.5 8.19581 12.2569 8.78609 11.7708 9.2722C11.2847 9.75831 10.6944 10.0014 10 10.0014C9.30556 10.0014 8.71528 9.75831 8.22917 9.2722C7.74306 8.78609 7.5 8.19581 7.5 7.50137H5.83333C5.83333 8.65415 6.23958 9.63679 7.05208 10.4493C7.86458 11.2618 8.84722 11.668 10 11.668ZM7.5 5.00137H12.5C12.5 4.30693 12.2569 3.71665 11.7708 3.23054C11.2847 2.74443 10.6944 2.50137 10 2.50137C9.30556 2.50137 8.71528 2.74443 8.22917 3.23054C7.74306 3.71665 7.5 4.30693 7.5 5.00137Z" fill="#121212"/>
</g>
</svg>
